<?xml version="1.0" standalone="no"?>
<!DOCTYPE svg PUBLIC "-//W3C//DTD SVG 20010904//EN"
 "http://www.w3.org/TR/2001/REC-SVG-20010904/DTD/svg10.dtd">
<svg version="1.0" xmlns="http://www.w3.org/2000/svg"
 width="816.000000pt" height="1200.000000pt" viewBox="0 0 816.000000 1200.000000"
 preserveAspectRatio="xMidYMid meet">

<g transform="translate(0.000000,1200.000000) scale(0.100000,-0.100000)"
fill="#000000" stroke="none">
<path d="M3805 11989 c-1307 -89 -2486 -801 -3182 -1920 -312 -503 -498 -1040
-580 -1674 -25 -197 -25 -708 0 -915 51 -411 161 -817 387 -1425 540 -1451
1661 -3371 3141 -5380 244 -331 497 -660 509 -660 18 0 460 586 796 1055 1144
1595 2045 3108 2598 4357 170 386 285 689 420 1105 134 416 175 586 218 916
18 140 22 218 22 487 1 359 -10 478 -70 785 -208 1062 -828 1990 -1736 2598
-736 493 -1635 732 -2523 671z m499 -2074 c851 -100 1533 -713 1720 -1546 34
-152 46 -265 46 -436 0 -791 -459 -1495 -1188 -1820 -464 -208 -1012 -225
-1487 -48 -549 204 -977 629 -1180 1170 -188 503 -165 1068 64 1550 129 271
299 492 519 676 426 355 964 517 1506 454z"/>
</g>
</svg>
